<?xml version="1.0" standalone="no"?>
<!DOCTYPE svg PUBLIC "-//W3C//DTD SVG 20010904//EN"
 "http://www.w3.org/TR/2001/REC-SVG-20010904/DTD/svg10.dtd">
<svg version="1.0" xmlns="http://www.w3.org/2000/svg"
 width="256.000000pt" height="256.000000pt" viewBox="0 0 256.000000 256.000000"
 preserveAspectRatio="xMidYMid meet">
<metadata>
Created by potrace 1.11, written by Peter Selinger 2001-2013
</metadata>
<g transform="translate(0.000000,256.000000) scale(0.100000,-0.100000)"
fill="#000000" stroke="none">
<path d="M765 2545 c-212 -40 -383 -159 -461 -321 -38 -79 -64 -193 -60 -263
2 -37 -3 -49 -32 -85 -93 -110 -164 -249 -197 -384 -14 -59 -16 -106 -12 -293
4 -195 8 -238 30 -329 29 -119 66 -229 108 -313 16 -32 25 -56 21 -53 -4 2 -8
-5 -9 -17 0 -12 1 -16 4 -9 3 6 9 12 15 12 6 0 7 -7 4 -16 -3 -9 -2 -12 4 -9
6 4 16 -7 23 -24 7 -17 16 -29 18 -26 3 3 12 -6 19 -20 7 -14 17 -25 22 -25 5
0 6 -10 3 -22 -5 -18 -4 -19 4 -8 10 15 26 7 26 -13 0 -7 7 -12 15 -13 23 0
50 -15 45 -24 -3 -5 5 -6 17 -2 11 3 19 1 16 -4 -4 -5 13 -10 35 -12 23 -2 51
-4 62 -5 11 -2 26 6 33 15 9 13 21 16 40 13 26 -6 26 -6 -3 9 -16 8 -24 15
-17 15 8 1 10 6 6 13 -4 6 -8 26 -10 43 l-2 31 44 -21 c24 -11 44 -27 44 -35
1 -11 3 -11 7 -2 4 10 8 10 20 0 8 -7 22 -13 30 -14 28 -4 44 -14 39 -22 -3
-5 6 -7 21 -4 17 3 29 0 35 -12 5 -9 14 -16 21 -16 7 0 6 4 -3 10 -20 13 -8
13 27 -1 15 -6 37 -13 48 -15 11 -2 30 -6 43 -8 32 -7 43 -16 35 -29 -4 -8 -1
-7 9 1 14 11 20 11 37 0 12 -7 21 -16 21 -21 0 -4 4 -6 9 -2 5 3 15 0 23 -7 7
-7 19 -13 26 -14 29 -2 33 -5 26 -16 -5 -7 -2 -9 8 -5 9 3 24 0 34 -7 11 -7
40 -19 67 -26 26 -7 47 -17 47 -21 0 -5 9 -9 20 -9 23 0 72 -21 82 -35 5 -6 8
-5 8 3 0 7 5 10 10 7 6 -4 8 -10 5 -14 -2 -5 7 -6 20 -3 14 2 25 0 25 -4 0 -5
16 -9 36 -10 20 0 39 -5 42 -10 4 -5 18 -10 32 -10 48 -3 51 -4 44 -16 -5 -9
-2 -9 9 1 9 7 17 9 17 4 0 -5 10 -9 23 -8 12 1 26 0 32 -3 5 -4 79 -8 165 -10
147 -3 157 -2 199 20 33 18 45 30 47 51 2 18 -1 25 -8 21 -8 -5 -9 3 -5 25 4
20 3 30 -3 26 -14 -9 -12 18 3 35 10 12 9 12 -3 3 -12 -8 -21 -4 -41 17 l-25
27 29 11 c32 12 51 7 41 -10 -4 -7 -2 -8 4 -4 6 4 8 14 5 24 -3 9 -3 14 2 10
4 -4 13 -4 19 1 6 5 27 18 48 29 31 18 41 19 75 9 21 -6 42 -16 46 -22 6 -7
10 -6 13 2 4 9 13 9 30 2 14 -5 48 -9 75 -9 37 0 48 -3 44 -12 -4 -7 0 -5 8 5
8 9 24 17 36 17 11 0 21 5 21 12 0 6 3 8 6 5 9 -9 44 31 60 70 9 22 11 40 5
56 -15 39 -85 100 -178 155 -48 28 -93 55 -99 59 -7 5 -14 44 -17 89 -3 44
-15 105 -26 135 -12 30 -21 59 -21 65 0 6 -12 24 -26 40 -15 17 -42 76 -64
142 -41 121 -68 178 -107 230 -58 76 -103 65 -171 -43 l-47 -75 -75 -1 c-41 0
-88 -2 -105 -3 -30 -1 -30 -1 -57 104 -36 143 -54 191 -104 290 -71 138 -191
276 -335 382 -160 119 -372 160 -566 112 l-24 -6 21 34 c66 113 227 175 425
165 189 -11 295 -64 475 -238 64 -62 158 -140 207 -173 106 -71 300 -107 377
-71 65 31 91 121 52 180 -26 40 -62 57 -128 62 -118 10 -174 42 -324 186 -189
180 -328 265 -484 292 -18 3 -38 9 -43 12 -20 12 -273 11 -342 -2z"/>
<path d="M170 446 c0 -2 7 -7 16 -10 8 -3 12 -2 9 4 -6 10 -25 14 -25 6z"/>
<path d="M170 421 c0 -6 4 -13 10 -16 6 -3 7 1 4 9 -7 18 -14 21 -14 7z"/>
<path d="M588 352 c9 -10 19 -17 21 -16 6 5 -20 34 -30 34 -5 0 -1 -8 9 -18z"/>
<path d="M563 335 c-3 -9 -3 -18 -1 -21 3 -3 8 4 11 16 6 23 -1 27 -10 5z"/>
<path d="M630 326 c0 -2 7 -7 16 -10 8 -3 12 -2 9 4 -6 10 -25 14 -25 6z"/>
<path d="M651 293 c-1 -18 13 -23 29 -11 12 8 12 9 -2 5 -9 -3 -19 -1 -22 6
-3 9 -5 9 -5 0z"/>
<path d="M2170 286 c0 -2 7 -7 16 -10 8 -3 12 -2 9 4 -6 10 -25 14 -25 6z"/>
<path d="M708 263 c6 -2 9 -10 6 -15 -4 -7 -2 -8 5 -4 13 9 5 26 -12 25 -9 0
-8 -2 1 -6z"/>
<path d="M2297 249 c4 -13 8 -18 11 -10 2 7 -1 18 -6 23 -8 8 -9 4 -5 -13z"/>
<path d="M861 244 c0 -11 3 -14 6 -6 3 7 2 16 -1 19 -3 4 -6 -2 -5 -13z"/>
<path d="M887 246 c-4 -9 -3 -15 2 -11 5 3 11 0 13 -7 3 -7 7 -5 11 6 4 9 3
15 -2 11 -5 -3 -11 0 -13 7 -3 7 -7 5 -11 -6z"/>
<path d="M2137 245 c3 -8 9 -12 14 -9 12 7 11 11 -5 17 -10 4 -13 1 -9 -8z"/>
<path d="M519 233 c-13 -16 -12 -17 4 -4 16 13 21 21 13 21 -2 0 -10 -8 -17
-17z"/>
<path d="M624 242 c4 -3 14 -7 22 -8 9 -1 13 0 10 4 -4 3 -14 7 -22 8 -9 1
-13 0 -10 -4z"/>
<path d="M799 238 c-5 -18 -6 -38 -1 -34 7 8 12 36 6 36 -2 0 -4 -1 -5 -2z"/>
<path d="M548 218 c5 -5 16 -8 23 -6 8 3 3 7 -10 11 -17 4 -21 3 -13 -5z"/>
<path d="M690 200 c0 -5 5 -10 10 -10 6 0 10 5 10 10 0 6 -4 10 -10 10 -5 0
-10 -4 -10 -10z"/>
<path d="M917 196 c-3 -8 0 -17 7 -19 10 -4 12 1 9 14 -6 23 -9 24 -16 5z"/>
<path d="M996 181 c-3 -5 0 -14 8 -20 10 -9 15 -8 19 3 4 11 1 13 -10 9 -11
-4 -14 -2 -9 5 4 7 5 12 2 12 -3 0 -7 -4 -10 -9z"/>
<path d="M876 167 c3 -10 9 -15 12 -12 3 3 0 11 -7 18 -10 9 -11 8 -5 -6z"/>
<path d="M950 161 c0 -6 4 -13 10 -16 6 -3 7 1 4 9 -7 18 -14 21 -14 7z"/>
<path d="M1074 155 c1 -8 6 -18 11 -22 4 -5 5 -2 0 6 -6 11 -4 13 8 8 23 -9
21 0 -2 13 -15 7 -19 7 -17 -5z"/>
<path d="M797 149 c7 -7 15 -10 18 -7 3 3 -2 9 -12 12 -14 6 -15 5 -6 -5z"/>
<path d="M921 141 c-8 -5 -9 -11 -3 -15 5 -3 12 1 16 9 6 17 6 18 -13 6z"/>
<path d="M980 134 c0 -13 18 -39 24 -34 2 3 -2 14 -10 24 -8 11 -14 16 -14 10z"/>
<path d="M1018 128 c5 -5 16 -8 23 -6 8 3 3 7 -10 11 -17 4 -21 3 -13 -5z"/>
<path d="M1060 126 c0 -2 8 -10 18 -17 15 -13 16 -12 3 4 -13 16 -21 21 -21
13z"/>
<path d="M1113 112 c0 -12 5 -22 9 -22 11 0 10 12 -2 30 -7 12 -9 10 -7 -8z"/>
<path d="M1198 123 c7 -3 16 -2 19 1 4 3 -2 6 -13 5 -11 0 -14 -3 -6 -6z"/>
<path d="M1034 102 c4 -3 14 -7 22 -8 9 -1 13 0 10 4 -4 3 -14 7 -22 8 -9 1
-13 0 -10 -4z"/>
<path d="M1260 96 c0 -2 7 -7 16 -10 8 -3 12 -2 9 4 -6 10 -25 14 -25 6z"/>
<path d="M1296 75 c-9 -26 -7 -32 5 -12 6 10 9 21 6 23 -2 3 -7 -2 -11 -11z"/>
<path d="M1353 45 c0 -8 4 -12 9 -9 5 3 6 10 3 15 -9 13 -12 11 -12 -6z"/>
<path d="M1446 38 c3 -5 10 -6 15 -3 13 9 11 12 -6 12 -8 0 -12 -4 -9 -9z"/>
</g>
</svg>
